# xmcd
#
# Track frame offsets:
#	150
#	5117
#	34610
#	62837
#	81465
#	95935
#	124962
#
# Disc length: 2080 seconds
#
# Revision: 1
# Processed by: cddbd v1.5.1PL0 Copyright (c) Steve Scherf et al.
# Submitted via: CDex 1.50Beta5
#
DISCID=62081e07
DTITLE=Hipgello - Hipgello
DYEAR=1995
DGENRE=Rock
TTITLE0=褐色の鉄
TTITLE1=水の泡で落胆
TTITLE2=神経質は全身麻酔で
TTITLE3=疲労の回復が少し遅れそう
TTITLE4=道理で薄いアップルティー
TTITLE5=予想外の気圧配置
TTITLE6=そして評価はどう?
EXTD=
EXTT0=
EXTT1=
EXTT2=
EXTT3=
EXTT4=
EXTT5=
EXTT6=
PLAYORDER=
